<?xml version="1.0" standalone="no"?>
<!DOCTYPE svg PUBLIC "-//W3C//DTD SVG 20010904//EN" "http://www.w3.org/TR/2001/REC-SVG-20010904/DTD/svg10.dtd">
<svg version="1.0" xmlns="http://www.w3.org/2000/svg"
    width="500.000000pt" height="500.000000pt" viewBox="0 0 500.000000 500.000000"
    preserveAspectRatio="xMidYMid meet">

    <g transform="translate(0.000000,500.000000) scale(0.100000,-0.100000)"
        fill="#000000" stroke="none">
        <path
            d="M1190 3453 c-14 -2 -54 -18 -90 -36 l-65 -32 -8 -120 c-11 -168 -2
-387 19 -430 18 -39 44 -51 74 -35 30 16 47 62 55 146 l7 70 50 18 c157 56
232 259 135 365 -43 47 -105 65 -177 54z m75 -183 c8 -26 -17 -72 -53 -92
l-29 -18 -7 53 c-5 42 -3 54 11 65 26 19 71 15 78 -8z" />
        <path
            d="M1588 3445 c-74 -20 -136 -54 -144 -78 -4 -12 -7 -130 -8 -262 0
-210 2 -245 18 -277 43 -88 104 -40 121 95 6 50 11 60 33 68 31 12 32 11 66
-78 35 -93 59 -123 96 -123 62 0 66 96 11 216 l-33 71 27 29 c98 105 85 273
-25 331 -48 25 -91 28 -162 8z m98 -179 c7 -31 -19 -78 -56 -100 -45 -26 -50
-21 -50 48 0 70 3 74 62 75 32 1 39 -3 44 -23z" />
        <path
            d="M2865 3427 c-26 -26 -36 -49 -51 -112 -26 -117 -24 -264 4 -335 45
-113 122 -173 222 -173 93 0 150 45 185 148 34 101 18 310 -32 410 -38 76 -88
97 -119 50 -16 -25 -16 -32 5 -125 39 -171 26 -318 -30 -335 -84 -27 -119 100
-83 301 17 100 12 148 -19 182 -28 30 -43 28 -82 -11z" />
        <path
            d="M3455 3441 c-127 -57 -208 -301 -160 -481 39 -146 163 -216 282 -159
51 25 83 66 83 108 0 47 -27 56 -109 35 -37 -10 -75 -15 -85 -11 -9 4 -23 22
-31 42 -36 86 2 293 57 311 26 8 38 -10 38 -56 0 -51 24 -80 65 -80 45 0 75
38 75 94 l0 41 55 -3 55 -4 0 -191 c0 -106 5 -209 11 -230 13 -47 49 -73 78
-57 35 18 41 44 41 178 0 71 3 170 6 220 l7 90 44 17 c92 35 130 95 81 129
-47 33 -251 12 -347 -36 l-46 -23 -41 43 c-34 35 -47 42 -80 42 -21 0 -57 -9
-79 -19z" />
        <path
            d="M2027 3436 c-54 -20 -83 -50 -117 -121 -70 -145 -54 -375 34 -468 30
-33 84 -57 123 -57 41 1 105 33 135 68 110 130 95 464 -24 555 -42 33 -101 41
-151 23z m78 -196 c36 -40 32 -233 -6 -271 -44 -44 -80 19 -80 140 0 78 6 107
29 134 20 22 35 22 57 -3z" />
        <path
            d="M2455 3436 c-111 -35 -119 -57 -119 -346 -1 -194 1 -219 18 -244 17
-27 21 -28 73 -23 225 23 392 292 307 495 -44 107 -160 156 -279 118z m123
-178 c33 -37 44 -74 32 -119 -19 -70 -109 -164 -133 -140 -11 11 -5 251 6 269
14 21 71 14 95 -10z" />
        <path
            d="M1302 2594 c-29 -7 -65 -20 -79 -28 -25 -13 -28 -12 -46 10 -17 22
-26 24 -95 24 -147 -1 -279 -44 -312 -102 -13 -25 -13 -29 2 -45 11 -11 39
-18 78 -21 l60 -4 0 -210 c0 -165 3 -215 15 -238 28 -54 83 -48 104 11 6 18
11 106 12 203 0 94 3 188 7 210 6 34 12 40 54 56 l46 17 4 -236 c3 -203 5
-241 21 -268 14 -26 24 -33 47 -33 40 0 57 29 69 114 11 73 14 80 47 90 19 6
25 -1 50 -70 15 -42 39 -90 52 -105 43 -52 102 -27 102 43 0 40 -31 136 -59
184 l-19 32 30 29 c130 121 60 356 -105 352 -18 0 -56 -7 -85 -15z m96 -195
c3 -31 -2 -41 -33 -68 -55 -48 -65 -42 -65 33 0 71 4 76 60 73 33 -2 35 -5 38
-38z" />
        <path
            d="M2219 2591 c-109 -60 -177 -223 -167 -400 6 -96 43 -179 100 -225 74
-58 187 -43 252 34 29 36 33 71 10 94 -19 20 -21 20 -100 -1 -71 -19 -89 -15
-112 28 -18 34 -10 201 13 257 32 79 85 78 85 -3 0 -50 22 -75 68 -75 85 0 97
175 19 265 -28 32 -40 38 -82 41 -36 3 -60 -1 -86 -15z" />
        <path
            d="M2534 2600 c-12 -5 -27 -24 -32 -42 -6 -18 -16 -146 -22 -284 -13
-272 -11 -286 36 -304 54 -21 87 26 99 143 7 60 11 70 33 80 21 10 26 9 30 -3
3 -7 24 -52 48 -100 48 -95 81 -133 116 -131 13 1 37 1 53 1 168 -4 234 8 277
47 36 33 10 93 -41 93 -19 0 -22 4 -18 23 4 12 9 72 12 132 10 195 13 211 40
223 13 6 31 22 40 35 33 50 -9 77 -118 77 -111 -1 -187 -36 -187 -86 0 -27 34
-54 69 -54 l24 0 -7 -157 c-7 -181 -12 -212 -35 -220 -9 -3 -26 -15 -38 -26
-20 -18 -23 -18 -23 -4 0 9 -27 69 -60 134 l-59 117 36 49 c67 91 102 214 71
245 -36 36 -85 1 -143 -103 -19 -33 -51 -80 -72 -105 l-38 -44 -5 118 c-5 109
-7 119 -29 137 -26 21 -27 21 -57 9z" />
        <path
            d="M3935 2591 c-46 -21 -105 -82 -135 -140 -116 -228 -15 -534 167 -506
64 9 132 78 164 165 15 40 29 65 41 68 24 6 51 57 43 81 -8 28 -49 41 -126 41
-76 0 -121 -17 -139 -51 -14 -24 8 -64 40 -74 18 -6 19 -8 5 -34 -16 -32 -49
-45 -76 -31 -45 24 -49 156 -9 264 24 63 53 96 84 96 28 0 36 -16 36 -75 0
-46 17 -65 58 -65 40 0 57 36 57 120 0 70 -3 81 -25 105 -53 57 -113 69 -185
36z" />
        <path
            d="M1795 2592 c-80 -19 -146 -136 -186 -330 -22 -107 -25 -225 -6 -262
10 -19 20 -25 47 -25 30 0 37 5 57 40 12 22 25 57 29 78 7 42 8 43 75 52 l46
6 7 -62 c8 -82 32 -123 74 -127 26 -3 35 2 52 30 20 30 21 44 16 153 -8 201
-61 390 -119 427 -27 18 -66 27 -92 20z m41 -187 c7 -19 14 -57 14 -84 l0 -49
-42 -4 c-24 -3 -46 -3 -49 -2 -9 5 10 101 26 141 18 42 32 42 51 -2z" />
        <path
            d="M3311 2576 c-44 -47 -81 -219 -81 -376 0 -153 37 -241 94 -226 39 10
57 60 64 185 l7 106 45 -109 c54 -131 100 -189 150 -189 64 0 103 87 122 275
22 219 -40 408 -112 343 -33 -30 -44 -84 -44 -222 -1 -73 -1 -133 -3 -133 -1
0 -16 44 -34 98 -40 123 -84 220 -111 249 -28 30 -69 29 -97 -1z" />
    </g>
</svg>